<?xml version="1.0" encoding="utf-8"?>
<!-- Generator: Adobe Illustrator 27.3.1, SVG Export Plug-In . SVG Version: 6.00 Build 0)  -->
<svg version="1.1" id="Layer_1" xmlns="http://www.w3.org/2000/svg" xmlns:xlink="http://www.w3.org/1999/xlink" x="0px" y="0px"
	 viewBox="0 0 595.3 590.4" style="enable-background:new 0 0 595.3 590.4;" xml:space="preserve">
<style type="text/css">
	.st0{fill:url(#SVGID_1_);}
	.st1{fill:url(#SVGID_00000022522656559351674090000003188017279378846379_);}
	.st2{fill:url(#SVGID_00000122701585294245141000000016648172654240144785_);}
	.st3{fill:url(#SVGID_00000017485491768385201050000008570817595672489353_);}
	.st4{fill:url(#SVGID_00000056410448681175974520000003442566507793867191_);}
	.st5{fill:url(#SVGID_00000026157332865340747550000007376187684656540852_);}
	.st6{fill:url(#SVGID_00000046312131159693594480000014792156391752372134_);}
	.st7{fill:url(#SVGID_00000137122316594718913530000009922776313625417880_);}
	.st8{fill-rule:evenodd;clip-rule:evenodd;fill:url(#SVGID_00000175283637756569909030000004722987678050956471_);}
</style>
<g>
	<g id="Symbol_00000009583726437773018370000000919324719754510746_">
		<g>
			
				<linearGradient id="SVGID_1_" gradientUnits="userSpaceOnUse" x1="112.7729" y1="750.9059" x2="163.0353" y2="999.0251" gradientTransform="matrix(1 0 0 1 0 -674)">
				<stop  offset="0" style="stop-color:#234E9C"/>
				<stop  offset="0.405" style="stop-color:#244F9D"/>
				<stop  offset="0.7235" style="stop-color:#26519F"/>
				<stop  offset="1" style="stop-color:#2654A0"/>
			</linearGradient>
			<path class="st0" d="M159.8,323.8c5.8-5.8,6.2-14.7,0.9-20.5c-24.5-29-38.8-66.4-38.8-104.3s14.3-75.3,38.8-104.3
				c4.9-6.2,4.9-15.1-0.9-20.5l0,0c-6.2-6.2-16.5-5.8-22.3,0.9c-29,33-46.3,76.6-46.3,123.9s17.4,90.9,45.9,123.9
				C142.9,330,153.1,330,159.8,323.8L159.8,323.8z"/>
		</g>
		<g>
			<g>
				
					<linearGradient id="SVGID_00000019649297295366788780000010850660603104675497_" gradientUnits="userSpaceOnUse" x1="324.4384" y1="700.3744" x2="153.308" y2="884.6691" gradientTransform="matrix(1 0 0 1 0 -674)">
					<stop  offset="0" style="stop-color:#255BA6"/>
					<stop  offset="0.3994" style="stop-color:#2553A0"/>
					<stop  offset="0.6844" style="stop-color:#2556A2"/>
					<stop  offset="1" style="stop-color:#2657A3"/>
				</linearGradient>
				
					<path id="SVGID_00000183959649887549232450000009163503830706144944_" style="fill:url(#SVGID_00000019649297295366788780000010850660603104675497_);" d="
					M176.7,222.6c8,0,14.7-5.8,15.1-13.8c3.1-37.9,19.6-74.4,46.3-101.1s63.3-43.2,101.1-46.3c8-0.9,13.8-7.6,13.8-15.1l0,0
					c0-8.9-7.6-16-16.5-15.1c-43.7,3.1-86.9,21.8-120.3,55.2s-52.1,76.6-55.2,120.3C160.7,215.1,167.4,222.6,176.7,222.6
					L176.7,222.6z"/>
			</g>
		</g>
		<g>
			<g>
				
					<linearGradient id="SVGID_00000090287724521522533370000002037698271206903968_" gradientUnits="userSpaceOnUse" x1="258.3027" y1="794.9198" x2="517.0537" y2="794.9198" gradientTransform="matrix(1 0 0 1 0 -674)">
					<stop  offset="0" style="stop-color:#2455A2"/>
					<stop  offset="1" style="stop-color:#2562AB"/>
				</linearGradient>
				<path style="fill:url(#SVGID_00000090287724521522533370000002037698271206903968_);" d="M262.7,152.7
					c5.8,5.8,14.7,6.2,20.5,0.9c29-24.5,66.4-38.8,104.3-38.8s75.3,14.3,104.3,38.8c6.2,4.9,15.1,4.9,20.5-0.9l0,0
					c6.2-6.2,5.8-16.5-0.9-22.3c-33.4-28.5-76.6-45.9-123.9-45.9s-90.9,17.4-123.9,45.9C256.9,136.2,256.5,146.4,262.7,152.7
					L262.7,152.7z"/>
			</g>
		</g>
		<g>
			
				<linearGradient id="SVGID_00000055681250806758747160000002638933479056883626_" gradientUnits="userSpaceOnUse" x1="409.6292" y1="832.2338" x2="536.4945" y2="976.2925" gradientTransform="matrix(1 0 0 1 0 -674)">
				<stop  offset="0" style="stop-color:#245CA7"/>
				<stop  offset="0.4721" style="stop-color:#2560AA"/>
				<stop  offset="1" style="stop-color:#235FA9"/>
			</linearGradient>
			<path style="fill:url(#SVGID_00000055681250806758747160000002638933479056883626_);" d="M370.5,168.7c0,8,5.8,14.7,13.8,15.1
				c37.9,3.1,74.4,19.6,101.1,46.3s43.2,63.3,46.3,101.1c0.9,8,7.6,13.8,15.1,13.8l0,0c8.9,0,16-7.6,15.1-16.5
				c-3.1-43.7-21.8-86.9-55.2-120.3s-76.6-52.1-120.3-55.2C378.1,152.7,370.5,159.8,370.5,168.7L370.5,168.7z"/>
		</g>
		<g>
			
				<linearGradient id="SVGID_00000164477201091837730460000017225482713863267225_" gradientUnits="userSpaceOnUse" x1="457.9131" y1="943.4749" x2="467.4867" y2="1161.2773" gradientTransform="matrix(1 0 0 1 0 -674)">
				<stop  offset="0" style="stop-color:#245EA9"/>
				<stop  offset="0.5" style="stop-color:#2764AD"/>
				<stop  offset="1" style="stop-color:#2A6CB3"/>
			</linearGradient>
			<path style="fill:url(#SVGID_00000164477201091837730460000017225482713863267225_);" d="M433.4,255.6
				c-5.8,5.8-6.2,14.7-0.9,20.5c24.5,29,38.8,66.4,38.8,104.3s-14.3,75.3-38.8,104.3c-4.9,6.2-4.9,15.1,0.9,20.5l0,0
				c6.2,6.2,16.5,5.8,22.3-0.9c28.5-33.4,45.9-76.6,45.9-123.9s-17.4-90.9-45.9-123.9C449.8,249.4,439.6,248.9,433.4,255.6
				L433.4,255.6z"/>
		</g>
		<g>
			
				<linearGradient id="SVGID_00000017474866460998910810000008814891183008000652_" gradientUnits="userSpaceOnUse" x1="455.1772" y1="1055.0391" x2="261.3094" y2="1224.9728" gradientTransform="matrix(1 0 0 1 0 -674)">
				<stop  offset="0" style="stop-color:#2663AC"/>
				<stop  offset="0.5" style="stop-color:#2C6AB1"/>
				<stop  offset="0.7137" style="stop-color:#2C6AB1"/>
				<stop  offset="1" style="stop-color:#2452A0"/>
			</linearGradient>
			<path style="fill:url(#SVGID_00000017474866460998910810000008814891183008000652_);" d="M416.4,366.6c-8,0-14.7,5.8-15.1,13.8
				c-3.1,37.9-19.6,74.4-46.3,101.1s-63.3,43.2-101.1,46.3c-8,0.9-13.8,7.6-13.8,15.1l0,0c0,8.9,7.6,16,16.5,15.1
				c43.7-3.1,86.9-21.8,120.3-55.2s52.1-76.6,55.2-120.3C432.5,374.1,425.3,366.6,416.4,366.6L416.4,366.6z"/>
		</g>
		<g>
			<g>
				
					<linearGradient id="SVGID_00000005268115327047591410000009624025164421343120_" gradientUnits="userSpaceOnUse" x1="76.0717" y1="1132.0209" x2="334.74" y2="1132.0209" gradientTransform="matrix(1 0 0 1 0 -674)">
					<stop  offset="0" style="stop-color:#1F4696"/>
					<stop  offset="0.3994" style="stop-color:#224D9B"/>
					<stop  offset="0.6676" style="stop-color:#2B61AB"/>
					<stop  offset="1" style="stop-color:#2C68B0"/>
				</linearGradient>
				<path style="fill:url(#SVGID_00000005268115327047591410000009624025164421343120_);" d="M330,426.3c-5.8-5.8-14.7-6.2-20.5-0.9
					c-29,24.5-66.4,38.8-104.3,38.8s-75.3-14.3-104.3-38.8c-6.2-4.9-15.1-4.9-20.5,0.9l0,0c-6.2,6.2-5.8,16.5,0.9,22.3
					c33.4,28.5,76.6,45.9,123.9,45.9s90.9-17.4,123.9-45.9C336.2,443.2,336.7,432.9,330,426.3L330,426.3z"/>
			</g>
		</g>
		<g>
			
				<linearGradient id="SVGID_00000130628937191263347410000015072349160857694102_" gradientUnits="userSpaceOnUse" x1="30.6724" y1="933.3677" x2="203.0001" y2="1104.4982" gradientTransform="matrix(1 0 0 1 0 -674)">
				<stop  offset="0" style="stop-color:#214A99"/>
				<stop  offset="0.3994" style="stop-color:#204999"/>
				<stop  offset="0.7235" style="stop-color:#214B9A"/>
				<stop  offset="1" style="stop-color:#265BA6"/>
			</linearGradient>
			<path style="fill:url(#SVGID_00000130628937191263347410000015072349160857694102_);" d="M227.1,410.2c0-8-5.8-14.7-13.8-15.1
				c-37.9-3.1-74.4-19.6-101.1-46.3C85.4,322,68.9,285.5,65.8,247.6c-0.9-8-7.6-13.8-15.1-13.8l0,0c-8.9,0-16,7.6-15.1,16.5
				c3.1,43.7,21.8,86.9,55.2,120.3s76.6,52.1,120.3,55.2C219.5,426.3,227.1,419.6,227.1,410.2L227.1,410.2z"/>
		</g>
		<g>
			
				<linearGradient id="SVGID_00000140009255739452351800000003207487028437198514_" gradientUnits="userSpaceOnUse" x1="269.8305" y1="976.6346" x2="338.925" y2="933.6464" gradientTransform="matrix(1 0 0 1 0 -674)">
				<stop  offset="0" style="stop-color:#295FA9"/>
				<stop  offset="1" style="stop-color:#275DA7"/>
			</linearGradient>
			<path style="fill-rule:evenodd;clip-rule:evenodd;fill:url(#SVGID_00000140009255739452351800000003207487028437198514_);" d="
				M342,265.9c0.4,29-17.4,53.9-43.2,63.7c-25.4-9.8-43.7-34.8-43.2-63.7l0,0c11.6-9.8,26.7-15.6,43.2-15.6
				C315.3,249.8,330.4,256.1,342,265.9L342,265.9z"/>
		</g>
	</g>
</g>
</svg>
