<?xml version="1.0" encoding="utf-8"?>
<!-- Generator: Adobe Illustrator 27.3.1, SVG Export Plug-In . SVG Version: 6.00 Build 0)  -->
<svg version="1.1" id="Layer_1" xmlns="http://www.w3.org/2000/svg" xmlns:xlink="http://www.w3.org/1999/xlink" x="0px" y="0px"
	 viewBox="0 0 634.9 167.9" style="enable-background:new 0 0 634.9 167.9;" xml:space="preserve">
<style type="text/css">
	.st0{fill:#FFFFFF;}
	.st1{fill:url(#SVGID_1_);}
	.st2{fill:url(#SVGID_00000077290706121990547660000015034515133111903913_);}
	.st3{fill:url(#SVGID_00000060024948619710641090000004121267738837998250_);}
	.st4{fill:url(#SVGID_00000040544147093153607840000006177810551591149234_);}
	.st5{fill:url(#SVGID_00000047031199073726879130000013729737626931598978_);}
	.st6{fill:url(#SVGID_00000153699810195638509410000013631744420611606975_);}
	.st7{fill:url(#SVGID_00000035521130494763759240000014749167356316493739_);}
	.st8{fill:url(#SVGID_00000012467182717609239580000002422554198081955007_);}
	.st9{fill-rule:evenodd;clip-rule:evenodd;fill:url(#SVGID_00000009573628088616769640000015400726746184546235_);}
</style>
<g>
	<g>
		<g>
			<g>
				<path class="st0" d="M176.2,116.4c-4.7-2.8-8.4-6.6-10.9-11.5s-3.8-10.3-3.8-16.4c0-6.4,1.4-12.2,4.3-17.2
					c2.9-5,6.7-8.9,11.5-11.7s10-4.2,15.6-4.2c5.2,0,9.6,0.9,13.3,2.7s7.1,4.6,10.2,8.4l-4.4,4.4c-2.7-3.3-5.6-5.7-8.5-7.2
					c-3-1.6-6.5-2.3-10.6-2.3c-4.7,0-8.8,1.2-12.5,3.6c-3.7,2.4-6.6,5.7-8.7,9.7c-2.1,4.1-3.2,8.5-3.2,13.3c0,5,1,9.5,3,13.6
					c2,4,4.9,7.2,8.8,9.6c3.8,2.3,8.3,3.5,13.6,3.5c4.1,0,7.8-1,11.1-3s5.9-4.7,7.7-8.2c1.9-3.4,2.8-7.2,2.8-11.4v-0.3h-23v-6.1
					h29.7c0.2,0.6,0.3,2.1,0.3,4.3c0,6-1.2,11.3-3.7,15.9s-6,8.2-10.5,10.8c-4.5,2.6-9.6,3.8-15.5,3.8
					C186.5,120.6,180.9,119.2,176.2,116.4z"/>
			</g>
			<g>
				<path class="st0" d="M231.6,110.3V54.7h6.6v53.2c0,2.2,0.4,3.7,1.2,4.5s2,1.2,3.7,1.2h4.2v6H241
					C234.7,119.6,231.6,116.5,231.6,110.3z"/>
			</g>
			<g>
				<path class="st0" d="M262.3,117.8c-3.5-1.9-6.3-4.6-8.4-8.2c-2.1-3.6-3.2-7.7-3.2-12.5s1.1-8.9,3.2-12.5s4.9-6.3,8.4-8.2
					c3.5-1.9,7.2-2.8,11.2-2.8c3.9,0,7.6,0.9,11,2.8c3.5,1.9,6.3,4.6,8.4,8.2s3.2,7.7,3.2,12.5s-1.1,8.9-3.2,12.5s-4.9,6.3-8.3,8.2
					c-3.4,1.9-7.2,2.8-11.1,2.8C269.4,120.7,265.7,119.7,262.3,117.8z M259.6,106.1c1.3,2.7,3.2,4.8,5.6,6.3
					c2.4,1.6,5.1,2.3,8.2,2.3c3,0,5.8-0.8,8.2-2.3c2.4-1.6,4.2-3.7,5.5-6.3c1.3-2.7,2-5.6,2-8.9s-0.7-6.3-2-9s-3.1-4.8-5.5-6.3
					s-5.1-2.3-8.2-2.3s-5.8,0.8-8.2,2.3c-2.4,1.5-4.2,3.6-5.6,6.3c-1.3,2.7-2,5.7-2,9C257.6,100.4,258.3,103.4,259.6,106.1z"/>
			</g>
			<g>
				<path class="st0" d="M318,118.4c-3-1.5-4.9-3.3-5.6-5.4h-0.3v6.6h-6.6V54.7h6.6v26.9h0.3c1.5-2.2,3.8-4.1,7-5.6s6.3-2.3,9.3-2.3
					c3.8,0,7.4,0.9,10.9,2.7c3.4,1.8,6.2,4.5,8.3,8.1c2.1,3.6,3.2,7.9,3.2,12.9c0,4.4-1,8.3-3.1,11.9c-2.1,3.5-4.8,6.3-8.4,8.4
					c-3.5,2-7.4,3-11.8,3C324.3,120.7,321,119.9,318,118.4z M313.9,106.1c1.4,2.7,3.3,4.8,5.7,6.3c2.4,1.6,5.2,2.3,8.2,2.3
					s5.8-0.8,8.3-2.3c2.5-1.6,4.4-3.7,5.8-6.3c1.4-2.7,2.1-5.6,2.1-8.9s-0.7-6.2-2.1-8.9c-1.4-2.7-3.3-4.8-5.8-6.3
					c-2.5-1.6-5.2-2.3-8.3-2.3c-3.1,0-5.8,0.8-8.2,2.3c-2.4,1.6-4.4,3.7-5.7,6.3c-1.4,2.7-2.1,5.6-2.1,8.9S312.5,103.4,313.9,106.1z
					"/>
			</g>
			<g>
				<path class="st0" d="M377.4,73.7c6,0,10.7,1.6,14,4.9s4.9,7.6,4.9,13v28h-6.5v-7.1h-0.3c-1.5,2.6-3.6,4.6-6.2,6
					s-5.5,2.1-8.7,2.1c-3.4,0-6.3-0.6-8.7-1.8c-2.4-1.2-4.3-2.9-5.6-4.9c-1.3-2.1-1.9-4.4-1.9-6.9c0-4.4,1.5-7.9,4.5-10.4
					s7.4-3.7,13.2-3.7h13.7V91c0-3.5-1.3-6.2-3.8-8.2s-5.6-3-9.2-3c-2.7,0-5.1,0.6-7.3,1.7c-2.1,1.1-3.8,2.5-5,4.2l-4.3-4.3
					C364.4,76.2,370.2,73.7,377.4,73.7z M368.1,112.4c1.8,1.5,4.2,2.2,7.1,2.2c2.7,0,5.1-0.6,7.4-1.9c2.2-1.2,4-3,5.4-5.4
					c1.3-2.3,2-5,2-8.2V98h-13.6c-3.5,0-6.3,0.7-8.1,2.2c-1.9,1.5-2.8,3.5-2.8,6.2C365.3,108.9,366.2,110.9,368.1,112.4z"/>
			</g>
			<g>
				<path class="st0" d="M408.1,110.3V54.7h6.6v53.2c0,2.2,0.4,3.7,1.2,4.5c0.8,0.8,2,1.2,3.7,1.2h4.2v6h-6.3
					C411.2,119.6,408.1,116.5,408.1,110.3z"/>
			</g>
			<g>
				<path class="st0" d="M432.7,56.4h32.8v6h-25.9v21.9h23.9v6h-23.9v23.3h26.2v6h-33.1V56.4z"/>
			</g>
			<g>
				<path class="st0" d="M478.7,110.3V80.1h-3.5v-5.3h3.5V64.4h6.6v10.3h13V80h-13v27.9c0,2.2,0.4,3.7,1.2,4.5
					c0.8,0.8,2,1.2,3.7,1.2h8.1v6H488C481.8,119.6,478.7,116.5,478.7,110.3z"/>
			</g>
			<g>
				<path class="st0" d="M506.5,54.7h6.6v26.1h0.3c1.1-2.1,2.8-3.8,5.3-5.1c2.5-1.4,5.4-2,8.7-2c3.6,0,6.8,0.8,9.6,2.4s5,3.9,6.6,7
					S546,90,546,94.3v25.2h-6.6V94.3c0-2.7-0.5-5.1-1.6-7.4s-2.6-4.1-4.6-5.5s-4.3-2-7-2c-2.4,0-4.7,0.7-6.7,2.2
					c-2,1.4-3.6,3.4-4.7,5.9s-1.7,5.3-1.7,8.5v23.6h-6.6L506.5,54.7L506.5,54.7z"/>
			</g>
			<g>
				<path class="st0" d="M558.6,62.5c0.8-0.8,1.8-1.2,3-1.2s2.2,0.4,3.1,1.2c0.8,0.8,1.2,1.8,1.2,3s-0.4,2.2-1.2,3.1
					c-0.8,0.8-1.9,1.2-3.1,1.2c-1.2,0-2.2-0.4-3-1.2c-0.8-0.8-1.2-1.9-1.2-3.1C557.4,64.3,557.8,63.3,558.6,62.5z M558.4,74.7h6.6
					v44.8h-6.6V74.7z"/>
			</g>
			<g>
				<path class="st0" d="M588.5,96.2v-0.3l-14.3-21.1h8.3l10.1,15.8h0.3l10.5-15.8h7.5l-14.1,21V96l15.9,23.5h-8.3l-11.8-17.7h-0.3
					L580,119.6h-7.9L588.5,96.2z"/>
			</g>
		</g>
	</g>
</g>
<g>
	<g id="Symbol_00000138575182003888255060000009692024312467120268_">
		<g>
			
				<linearGradient id="SVGID_1_" gradientUnits="userSpaceOnUse" x1="38.8468" y1="710.592" x2="50.1277" y2="766.28" gradientTransform="matrix(1 0 0 1 0 -674)">
				<stop  offset="0" style="stop-color:#234E9C"/>
				<stop  offset="0.405" style="stop-color:#244F9D"/>
				<stop  offset="0.7235" style="stop-color:#26519F"/>
				<stop  offset="1" style="stop-color:#2654A0"/>
			</linearGradient>
			<path class="st1" d="M49.4,92c1.3-1.3,1.4-3.3,0.2-4.6c-5.5-6.5-8.7-14.9-8.7-23.4s3.2-16.9,8.7-23.4c1.1-1.4,1.1-3.4-0.2-4.6
				l0,0c-1.4-1.4-3.7-1.3-5,0.2C37.9,43.6,34,53.4,34,64s3.9,20.4,10.3,27.8C45.6,93.4,47.9,93.4,49.4,92L49.4,92z"/>
		</g>
		<g>
			<g>
				
					<linearGradient id="SVGID_00000102546253673601086430000002843977967078603440_" gradientUnits="userSpaceOnUse" x1="86.3531" y1="699.2507" x2="47.9445" y2="740.6138" gradientTransform="matrix(1 0 0 1 0 -674)">
					<stop  offset="0" style="stop-color:#255BA6"/>
					<stop  offset="0.3994" style="stop-color:#2553A0"/>
					<stop  offset="0.6844" style="stop-color:#2556A2"/>
					<stop  offset="1" style="stop-color:#2657A3"/>
				</linearGradient>
				
					<path id="SVGID_00000116923106334543758220000006662685027572827788_" style="fill:url(#SVGID_00000102546253673601086430000002843977967078603440_);" d="
					M53.2,69.3c1.8,0,3.3-1.3,3.4-3.1C57.3,57.7,61,49.5,67,43.5s14.2-9.7,22.7-10.4c1.8-0.2,3.1-1.7,3.1-3.4l0,0
					c0-2-1.7-3.6-3.7-3.4c-9.8,0.7-19.5,4.9-27,12.4s-11.7,17.2-12.4,27C49.6,67.6,51.1,69.3,53.2,69.3L53.2,69.3z"/>
			</g>
		</g>
		<g>
			<g>
				
					<linearGradient id="SVGID_00000032649117128851559220000002476133239578839465_" gradientUnits="userSpaceOnUse" x1="71.5096" y1="720.4705" x2="129.5838" y2="720.4705" gradientTransform="matrix(1 0 0 1 0 -674)">
					<stop  offset="0" style="stop-color:#2455A2"/>
					<stop  offset="1" style="stop-color:#2562AB"/>
				</linearGradient>
				<path style="fill:url(#SVGID_00000032649117128851559220000002476133239578839465_);" d="M72.5,53.6c1.3,1.3,3.3,1.4,4.6,0.2
					c6.5-5.5,14.9-8.7,23.4-8.7s16.9,3.2,23.4,8.7c1.4,1.1,3.4,1.1,4.6-0.2l0,0c1.4-1.4,1.3-3.7-0.2-5c-7.5-6.4-17.2-10.3-27.8-10.3
					s-20.4,3.9-27.8,10.3C71.2,49.9,71.1,52.2,72.5,53.6L72.5,53.6z"/>
			</g>
		</g>
		<g>
			
				<linearGradient id="SVGID_00000012433226298625430760000009094733968114156437_" gradientUnits="userSpaceOnUse" x1="105.4734" y1="728.8452" x2="133.9471" y2="761.1779" gradientTransform="matrix(1 0 0 1 0 -674)">
				<stop  offset="0" style="stop-color:#245CA7"/>
				<stop  offset="0.4721" style="stop-color:#2560AA"/>
				<stop  offset="1" style="stop-color:#235FA9"/>
			</linearGradient>
			<path style="fill:url(#SVGID_00000012433226298625430760000009094733968114156437_);" d="M96.7,57.2c0,1.8,1.3,3.3,3.1,3.4
				c8.5,0.7,16.7,4.4,22.7,10.4s9.7,14.2,10.4,22.7c0.2,1.8,1.7,3.1,3.4,3.1l0,0c2,0,3.6-1.7,3.4-3.7c-0.7-9.8-4.9-19.5-12.4-27
				c-7.5-7.5-17.2-11.7-27-12.4C98.4,53.6,96.7,55.2,96.7,57.2L96.7,57.2z"/>
		</g>
		<g>
			
				<linearGradient id="SVGID_00000137104304506584669420000016201384942650937506_" gradientUnits="userSpaceOnUse" x1="116.3103" y1="753.8123" x2="118.4589" y2="802.6959" gradientTransform="matrix(1 0 0 1 0 -674)">
				<stop  offset="0" style="stop-color:#245EA9"/>
				<stop  offset="0.5" style="stop-color:#2764AD"/>
				<stop  offset="1" style="stop-color:#2A6CB3"/>
			</linearGradient>
			<path style="fill:url(#SVGID_00000137104304506584669420000016201384942650937506_);" d="M110.8,76.7c-1.3,1.3-1.4,3.3-0.2,4.6
				c5.5,6.5,8.7,14.9,8.7,23.4s-3.2,16.9-8.7,23.4c-1.1,1.4-1.1,3.4,0.2,4.6l0,0c1.4,1.4,3.7,1.3,5-0.2c6.4-7.5,10.3-17.2,10.3-27.8
				s-3.9-20.4-10.3-27.8C114.5,75.3,112.2,75.2,110.8,76.7L110.8,76.7z"/>
		</g>
		<g>
			
				<linearGradient id="SVGID_00000015341824957002978220000016752954757417259683_" gradientUnits="userSpaceOnUse" x1="115.6962" y1="778.8517" x2="72.1844" y2="816.9918" gradientTransform="matrix(1 0 0 1 0 -674)">
				<stop  offset="0" style="stop-color:#2663AC"/>
				<stop  offset="0.5" style="stop-color:#2C6AB1"/>
				<stop  offset="0.7137" style="stop-color:#2C6AB1"/>
				<stop  offset="1" style="stop-color:#2452A0"/>
			</linearGradient>
			<path style="fill:url(#SVGID_00000015341824957002978220000016752954757417259683_);" d="M107,101.6c-1.8,0-3.3,1.3-3.4,3.1
				c-0.7,8.5-4.4,16.7-10.4,22.7s-14.2,9.7-22.7,10.4c-1.8,0.2-3.1,1.7-3.1,3.4l0,0c0,2,1.7,3.6,3.7,3.4c9.8-0.7,19.5-4.9,27-12.4
				s11.7-17.2,12.4-27C110.6,103.3,109,101.6,107,101.6L107,101.6z"/>
		</g>
		<g>
			<g>
				
					<linearGradient id="SVGID_00000036245169703183397600000005950887477112691900_" gradientUnits="userSpaceOnUse" x1="30.6096" y1="796.1296" x2="88.6652" y2="796.1296" gradientTransform="matrix(1 0 0 1 0 -674)">
					<stop  offset="0" style="stop-color:#1F4696"/>
					<stop  offset="0.3994" style="stop-color:#224D9B"/>
					<stop  offset="0.6676" style="stop-color:#2B61AB"/>
					<stop  offset="1" style="stop-color:#2C68B0"/>
				</linearGradient>
				<path style="fill:url(#SVGID_00000036245169703183397600000005950887477112691900_);" d="M87.6,115c-1.3-1.3-3.3-1.4-4.6-0.2
					c-6.5,5.5-14.9,8.7-23.4,8.7s-16.9-3.2-23.4-8.7c-1.4-1.1-3.4-1.1-4.6,0.2l0,0c-1.4,1.4-1.3,3.7,0.2,5
					c7.5,6.4,17.2,10.3,27.8,10.3S80,126.4,87.4,120C89,118.8,89.1,116.5,87.6,115L87.6,115z"/>
			</g>
		</g>
		<g>
			
				<linearGradient id="SVGID_00000135651830311251439730000012331747762087571896_" gradientUnits="userSpaceOnUse" x1="20.4202" y1="751.5438" x2="59.0975" y2="789.9524" gradientTransform="matrix(1 0 0 1 0 -674)">
				<stop  offset="0" style="stop-color:#214A99"/>
				<stop  offset="0.3994" style="stop-color:#204999"/>
				<stop  offset="0.7235" style="stop-color:#214B9A"/>
				<stop  offset="1" style="stop-color:#265BA6"/>
			</linearGradient>
			<path style="fill:url(#SVGID_00000135651830311251439730000012331747762087571896_);" d="M64.5,111.4c0-1.8-1.3-3.3-3.1-3.4
				c-8.5-0.7-16.7-4.4-22.7-10.4S29,83.4,28.3,74.9c-0.2-1.8-1.7-3.1-3.4-3.1l0,0c-2,0-3.6,1.7-3.4,3.7c0.7,9.8,4.9,19.5,12.4,27
				s17.2,11.7,27,12.4C62.8,115,64.5,113.5,64.5,111.4L64.5,111.4z"/>
		</g>
		<g>
			
				<linearGradient id="SVGID_00000179633430421313213570000008043244889485729165_" gradientUnits="userSpaceOnUse" x1="74.0969" y1="761.2546" x2="89.6045" y2="751.6063" gradientTransform="matrix(1 0 0 1 0 -674)">
				<stop  offset="0" style="stop-color:#295FA9"/>
				<stop  offset="1" style="stop-color:#275DA7"/>
			</linearGradient>
			<path style="fill-rule:evenodd;clip-rule:evenodd;fill:url(#SVGID_00000179633430421313213570000008043244889485729165_);" d="
				M90.3,79c0.1,6.5-3.9,12.1-9.7,14.3c-5.7-2.2-9.8-7.8-9.7-14.3l0,0c2.6-2.2,6-3.5,9.7-3.5C84.3,75.4,87.7,76.8,90.3,79L90.3,79z"
				/>
		</g>
	</g>
</g>
</svg>
