<svg viewBox="0 0 32 32" xmlns="http://www.w3.org/2000/svg">
    <path fill-rule="evenodd" clip-rule="evenodd" fill="currentColor"
          d="M12.5447 22.9221C12.1715 23.2937 11.5678 23.2925 11.1961 22.9194L5.57721 17.2777C5.36757 17.0672 5.27703 16.7832 5.30394 16.5106C5.27709 16.2386 5.36717 15.9553 5.57595 15.7449L11.1949 10.0819C11.5658 9.70811 12.1696 9.70575 12.5434 10.0767C12.9172 10.4476 12.9196 11.0514 12.5487 11.4252L8.28005 15.7272L25.7348 15.7272C26.2615 15.7272 26.6884 16.1541 26.6884 16.6808C26.6884 17.2074 26.2615 17.6343 25.7348 17.6343L8.62406 17.6343L12.5474 21.5736C12.919 21.9467 12.9178 22.5505 12.5447 22.9221Z"/>
</svg>
