<svg viewBox="0 0 32 32" xmlns="http://www.w3.org/2000/svg">
    <path fill-rule="evenodd" clip-rule="evenodd" fill="currentColor"
        d="M8.92781 10.3431C8.53729 9.95257 8.53729 9.3194 8.92781 8.92888C9.31833 8.53836 9.9515 8.53836 10.342 8.92888L23.0699 21.6568C23.4605 22.0473 23.4605 22.6805 23.0699 23.071C22.6794 23.4615 22.0463 23.4615 21.6557 23.071L8.92781 10.3431Z"/>
    <path fill-rule="evenodd" clip-rule="evenodd" fill="currentColor"
        d="M10.3419 23.0711C9.95135 23.4616 9.31818 23.4616 8.92766 23.0711C8.53713 22.6806 8.53713 22.0474 8.92766 21.6569L21.6556 8.92896C22.0461 8.53843 22.6793 8.53843 23.0698 8.92895C23.4603 9.31948 23.4603 9.95264 23.0698 10.3432L10.3419 23.0711Z"/>
</svg>
