<svg width="32" height="32" viewBox="0 0 32 32" fill="none" xmlns="http://www.w3.org/2000/svg">
<g clip-path="url(#clip0_13337_50769)">
<path d="M3 12.4C3 10.1598 3 9.03969 3.43597 8.18404C3.81947 7.43139 4.43139 6.81947 5.18404 6.43597C6.03969 6 7.15979 6 9.4 6H22.6C24.8402 6 25.9603 6 26.816 6.43597C27.5686 6.81947 28.1805 7.43139 28.564 8.18404C29 9.03969 29 10.1598 29 12.4V19.6C29 21.8402 29 22.9603 28.564 23.816C28.1805 24.5686 27.5686 25.1805 26.816 25.564C25.9603 26 24.8402 26 22.6 26H9.4C7.15979 26 6.03969 26 5.18404 25.564C4.43139 25.1805 3.81947 24.5686 3.43597 23.816C3 22.9603 3 21.8402 3 19.6V12.4Z"/>
<rect x="1" y="6" width="10" height="20" fill="#002395"/>
<rect x="11" y="6" width="10" height="20" fill="white"/>
<rect x="21" y="6" width="10" height="20" fill="#ED2939"/>
</g>
<path d="M3.25 12.4C3.25 11.2758 3.25019 10.4476 3.30367 9.79317C3.3569 9.14162 3.46169 8.68424 3.65873 8.29754C4.01825 7.59193 4.59193 7.01825 5.29754 6.65873C5.68424 6.46169 6.14162 6.3569 6.79317 6.30367C7.44763 6.25019 8.27577 6.25 9.4 6.25H22.6C23.7242 6.25 24.5524 6.25019 25.2068 6.30367C25.8584 6.3569 26.3158 6.46169 26.7025 6.65873C27.4081 7.01825 27.9817 7.59193 28.3413 8.29754C28.5383 8.68424 28.6431 9.14162 28.6963 9.79317C28.7498 10.4476 28.75 11.2758 28.75 12.4V19.6C28.75 20.7242 28.7498 21.5524 28.6963 22.2068C28.6431 22.8584 28.5383 23.3158 28.3413 23.7025C27.9817 24.4081 27.4081 24.9817 26.7025 25.3413C26.3158 25.5383 25.8584 25.6431 25.2068 25.6963C24.5524 25.7498 23.7242 25.75 22.6 25.75H9.4C8.27577 25.75 7.44763 25.7498 6.79317 25.6963C6.14162 25.6431 5.68424 25.5383 5.29754 25.3413C4.59193 24.9817 4.01825 24.4081 3.65873 23.7025C3.46169 23.3158 3.3569 22.8584 3.30367 22.2068C3.25019 21.5524 3.25 20.7242 3.25 19.6V12.4Z"/>
<defs>
<clipPath id="clip0_13337_50769">
<path d="M3 12.4C3 10.1598 3 9.03969 3.43597 8.18404C3.81947 7.43139 4.43139 6.81947 5.18404 6.43597C6.03969 6 7.15979 6 9.4 6H22.6C24.8402 6 25.9603 6 26.816 6.43597C27.5686 6.81947 28.1805 7.43139 28.564 8.18404C29 9.03969 29 10.1598 29 12.4V19.6C29 21.8402 29 22.9603 28.564 23.816C28.1805 24.5686 27.5686 25.1805 26.816 25.564C25.9603 26 24.8402 26 22.6 26H9.4C7.15979 26 6.03969 26 5.18404 25.564C4.43139 25.1805 3.81947 24.5686 3.43597 23.816C3 22.9603 3 21.8402 3 19.6V12.4Z"/>
</clipPath>
</defs>
</svg>
