<?xml version="1.0" encoding="utf-8"?>
<!-- Generator: Adobe Illustrator 27.3.1, SVG Export Plug-In . SVG Version: 6.00 Build 0)  -->
<svg version="1.1" id="Layer_1" xmlns="http://www.w3.org/2000/svg" xmlns:xlink="http://www.w3.org/1999/xlink" x="0px" y="0px"
	 viewBox="0 0 634.9 167.9" style="enable-background:new 0 0 634.9 167.9;" xml:space="preserve">
<style type="text/css">
	.st0{fill:#141B30;}
	.st1{fill:url(#SVGID_1_);}
	.st2{fill:url(#SVGID_00000108309934340923310590000016515406733786751388_);}
	.st3{fill:url(#SVGID_00000083048463774956047360000009811085223757384104_);}
	.st4{fill:url(#SVGID_00000102532916845170530270000004757374242362102696_);}
	.st5{fill:url(#SVGID_00000179605791745272284880000002008140009521618304_);}
	.st6{fill:url(#SVGID_00000005239245885231913660000003786801108420785796_);}
	.st7{fill:url(#SVGID_00000003810027126530687530000015508333996251924132_);}
	.st8{fill-rule:evenodd;clip-rule:evenodd;fill:url(#SVGID_00000103252721404476598060000011084381658918576528_);}
</style>
<g>
	<g>
		<g>
			<g>
				<path class="st0" d="M169.2,104.4c-4.7-2.8-8.4-6.6-10.9-11.5c-2.5-4.9-3.8-10.3-3.8-16.4c0-6.4,1.4-12.2,4.3-17.2
					c2.9-5,6.7-8.9,11.5-11.7c4.8-2.8,10-4.2,15.6-4.2c5.2,0,9.6,0.9,13.3,2.7c3.7,1.8,7.1,4.6,10.2,8.4l-4.4,4.4
					c-2.7-3.3-5.6-5.7-8.5-7.2c-3-1.6-6.5-2.3-10.6-2.3c-4.7,0-8.8,1.2-12.5,3.6c-3.7,2.4-6.6,5.7-8.7,9.7
					c-2.1,4.1-3.2,8.5-3.2,13.3c0,5,1,9.5,3,13.6c2,4,4.9,7.2,8.8,9.6c3.8,2.3,8.3,3.5,13.6,3.5c4.1,0,7.8-1,11.1-3
					c3.3-2,5.9-4.7,7.7-8.2c1.9-3.4,2.8-7.2,2.8-11.4v-0.3h-23v-6.1h29.7c0.2,0.6,0.3,2.1,0.3,4.3c0,6-1.2,11.3-3.7,15.9
					c-2.5,4.6-6,8.2-10.5,10.8c-4.5,2.6-9.6,3.8-15.5,3.8C179.5,108.6,173.9,107.2,169.2,104.4z"/>
			</g>
			<g>
				<path class="st0" d="M224.6,98.3V42.7h6.6v53.2c0,2.2,0.4,3.7,1.2,4.5c0.8,0.8,2,1.2,3.7,1.2h4.2v6h-6.3
					C227.7,107.6,224.6,104.5,224.6,98.3z"/>
			</g>
			<g>
				<path class="st0" d="M255.3,105.8c-3.5-1.9-6.3-4.6-8.4-8.2c-2.1-3.6-3.2-7.7-3.2-12.5c0-4.8,1.1-8.9,3.2-12.5
					c2.1-3.6,4.9-6.3,8.4-8.2c3.5-1.9,7.2-2.8,11.2-2.8c3.9,0,7.6,0.9,11,2.8c3.5,1.9,6.3,4.6,8.4,8.2c2.1,3.6,3.2,7.7,3.2,12.5
					c0,4.8-1.1,8.9-3.2,12.5c-2.1,3.6-4.9,6.3-8.3,8.2c-3.4,1.9-7.2,2.8-11.1,2.8C262.4,108.7,258.7,107.7,255.3,105.8z M252.6,94.1
					c1.3,2.7,3.2,4.8,5.6,6.3c2.4,1.6,5.1,2.3,8.2,2.3c3,0,5.8-0.8,8.2-2.3c2.4-1.6,4.2-3.7,5.5-6.3c1.3-2.7,2-5.6,2-8.9
					c0-3.3-0.7-6.3-2-9c-1.3-2.7-3.1-4.8-5.5-6.3c-2.4-1.5-5.1-2.3-8.2-2.3c-3.1,0-5.8,0.8-8.2,2.3c-2.4,1.5-4.2,3.6-5.6,6.3
					c-1.3,2.7-2,5.7-2,9C250.6,88.4,251.3,91.4,252.6,94.1z"/>
			</g>
			<g>
				<path class="st0" d="M311,106.4c-3-1.5-4.9-3.3-5.6-5.4h-0.3v6.6h-6.6V42.7h6.6v26.9h0.3c1.5-2.2,3.8-4.1,7-5.6
					c3.2-1.5,6.3-2.3,9.3-2.3c3.8,0,7.4,0.9,10.9,2.7c3.4,1.8,6.2,4.5,8.3,8.1c2.1,3.6,3.2,7.9,3.2,12.9c0,4.4-1,8.3-3.1,11.9
					c-2.1,3.5-4.8,6.3-8.4,8.4c-3.5,2-7.4,3-11.8,3C317.3,108.7,314,107.9,311,106.4z M306.9,94.1c1.4,2.7,3.3,4.8,5.7,6.3
					c2.4,1.6,5.2,2.3,8.2,2.3c3,0,5.8-0.8,8.3-2.3c2.5-1.6,4.4-3.7,5.8-6.3c1.4-2.7,2.1-5.6,2.1-8.9c0-3.3-0.7-6.2-2.1-8.9
					c-1.4-2.7-3.3-4.8-5.8-6.3c-2.5-1.6-5.2-2.3-8.3-2.3c-3.1,0-5.8,0.8-8.2,2.3c-2.4,1.6-4.4,3.7-5.7,6.3c-1.4,2.7-2.1,5.6-2.1,8.9
					C304.8,88.5,305.5,91.4,306.9,94.1z"/>
			</g>
			<g>
				<path class="st0" d="M370.4,61.7c6,0,10.7,1.6,14,4.9c3.3,3.3,4.9,7.6,4.9,13v28h-6.5v-7.1h-0.3c-1.5,2.6-3.6,4.6-6.2,6
					c-2.6,1.4-5.5,2.1-8.7,2.1c-3.4,0-6.3-0.6-8.7-1.8c-2.4-1.2-4.3-2.9-5.6-4.9c-1.3-2.1-1.9-4.4-1.9-6.9c0-4.4,1.5-7.9,4.5-10.4
					c3-2.5,7.4-3.7,13.2-3.7h13.7V79c0-3.5-1.3-6.2-3.8-8.2c-2.5-2-5.6-3-9.2-3c-2.7,0-5.1,0.6-7.3,1.7c-2.1,1.1-3.8,2.5-5,4.2
					l-4.3-4.3C357.4,64.2,363.2,61.7,370.4,61.7z M361.1,100.4c1.8,1.5,4.2,2.2,7.1,2.2c2.7,0,5.1-0.6,7.4-1.9c2.2-1.2,4-3,5.4-5.4
					c1.3-2.3,2-5,2-8.2V86h-13.6c-3.5,0-6.3,0.7-8.1,2.2c-1.9,1.5-2.8,3.5-2.8,6.2C358.3,96.9,359.2,98.9,361.1,100.4z"/>
			</g>
			<g>
				<path class="st0" d="M401.1,98.3V42.7h6.6v53.2c0,2.2,0.4,3.7,1.2,4.5c0.8,0.8,2,1.2,3.7,1.2h4.2v6h-6.3
					C404.2,107.6,401.1,104.5,401.1,98.3z"/>
			</g>
			<g>
				<path class="st0" d="M425.7,44.4h32.8v6h-25.9v21.9h23.9v6h-23.9v23.3h26.2v6h-33.1V44.4z"/>
			</g>
			<g>
				<path class="st0" d="M471.7,98.3V68.1h-3.5v-5.3h3.5V52.4h6.6v10.3h13v5.3h-13v27.9c0,2.2,0.4,3.7,1.2,4.5
					c0.8,0.8,2,1.2,3.7,1.2h8.1v6H481C474.8,107.6,471.7,104.5,471.7,98.3z"/>
			</g>
			<g>
				<path class="st0" d="M499.5,42.7h6.6v26.1h0.3c1.1-2.1,2.8-3.8,5.3-5.1c2.5-1.4,5.4-2,8.7-2c3.6,0,6.8,0.8,9.6,2.4
					c2.8,1.6,5,3.9,6.6,7c1.6,3.1,2.4,6.9,2.4,11.2v25.2h-6.6V82.3c0-2.7-0.5-5.1-1.6-7.4c-1.1-2.3-2.6-4.1-4.6-5.5
					c-2-1.4-4.3-2-7-2c-2.4,0-4.7,0.7-6.7,2.2c-2,1.4-3.6,3.4-4.7,5.9c-1.1,2.5-1.7,5.3-1.7,8.5v23.6h-6.6V42.7z"/>
			</g>
			<g>
				<path class="st0" d="M551.6,50.5c0.8-0.8,1.8-1.2,3-1.2c1.2,0,2.2,0.4,3.1,1.2c0.8,0.8,1.2,1.8,1.2,3c0,1.2-0.4,2.2-1.2,3.1
					c-0.8,0.8-1.9,1.2-3.1,1.2c-1.2,0-2.2-0.4-3-1.2c-0.8-0.8-1.2-1.9-1.2-3.1C550.4,52.3,550.8,51.3,551.6,50.5z M551.4,62.7h6.6
					v44.8h-6.6V62.7z"/>
			</g>
			<g>
				<path class="st0" d="M581.5,84.2v-0.3l-14.3-21.1h8.3l10.1,15.8h0.3l10.5-15.8h7.5l-14.1,21V84l15.9,23.5h-8.3l-11.8-17.7h-0.3
					L573,107.6h-7.9L581.5,84.2z"/>
			</g>
		</g>
	</g>
</g>
<g>
	<g id="Symbol_00000147940419078229126090000005205628963078197413_">
		<g>
			<linearGradient id="SVGID_1_" gradientUnits="userSpaceOnUse" x1="31.8065" y1="24.5974" x2="43.0874" y2="80.2854">
				<stop  offset="0" style="stop-color:#234E9C"/>
				<stop  offset="0.405" style="stop-color:#244F9D"/>
				<stop  offset="0.7235" style="stop-color:#26519F"/>
				<stop  offset="1" style="stop-color:#2654A0"/>
			</linearGradient>
			<path class="st1" d="M42.4,80c1.3-1.3,1.4-3.3,0.2-4.6c-5.5-6.5-8.7-14.9-8.7-23.4c0-8.5,3.2-16.9,8.7-23.4
				c1.1-1.4,1.1-3.4-0.2-4.6l0,0c-1.4-1.4-3.7-1.3-5,0.2C30.9,31.6,27,41.4,27,52c0,10.6,3.9,20.4,10.3,27.8
				C38.6,81.4,40.9,81.4,42.4,80L42.4,80z"/>
		</g>
		<g>
			<defs>
				<path id="SVGID_00000088118329589112101680000006785335056803328670_" d="M46.2,57.3c1.8,0,3.3-1.3,3.4-3.1
					c0.7-8.5,4.4-16.7,10.4-22.7c6-6,14.2-9.7,22.7-10.4c1.8-0.2,3.1-1.7,3.1-3.4v0c0-2-1.7-3.6-3.7-3.4c-9.8,0.7-19.5,4.9-27,12.4
					c-7.5,7.5-11.7,17.2-12.4,27C42.6,55.6,44.1,57.3,46.2,57.3L46.2,57.3z"/>
			</defs>
			
				<linearGradient id="SVGID_00000014615934774715345910000003402405264120803757_" gradientUnits="userSpaceOnUse" x1="79.3343" y1="13.2332" x2="40.9257" y2="54.5964">
				<stop  offset="0" style="stop-color:#255BA6"/>
				<stop  offset="0.3994" style="stop-color:#2553A0"/>
				<stop  offset="0.6844" style="stop-color:#2556A2"/>
				<stop  offset="1" style="stop-color:#2657A3"/>
			</linearGradient>
			
				<use xlink:href="#SVGID_00000088118329589112101680000006785335056803328670_"  style="overflow:visible;fill:url(#SVGID_00000014615934774715345910000003402405264120803757_);"/>
			<clipPath id="SVGID_00000154419213668517841200000005989620446049654666_">
				<use xlink:href="#SVGID_00000088118329589112101680000006785335056803328670_"  style="overflow:visible;"/>
			</clipPath>
		</g>
		<g>
			<g>
				
					<linearGradient id="SVGID_00000031186238817744783300000017139472457821875897_" gradientUnits="userSpaceOnUse" x1="64.4999" y1="34.4507" x2="122.5741" y2="34.4507">
					<stop  offset="0" style="stop-color:#2455A2"/>
					<stop  offset="1" style="stop-color:#2562AB"/>
				</linearGradient>
				<path style="fill:url(#SVGID_00000031186238817744783300000017139472457821875897_);" d="M65.5,41.6c1.3,1.3,3.3,1.4,4.6,0.2
					c6.5-5.5,14.9-8.7,23.4-8.7c8.5,0,16.9,3.2,23.4,8.7c1.4,1.1,3.4,1.1,4.6-0.2l0,0c1.4-1.4,1.3-3.7-0.2-5
					c-7.5-6.4-17.2-10.3-27.8-10.3c-10.6,0-20.4,3.9-27.8,10.3C64.2,37.9,64.1,40.2,65.5,41.6L65.5,41.6z"/>
			</g>
		</g>
		<g>
			
				<linearGradient id="SVGID_00000109025561394080667300000009745935175677992105_" gradientUnits="userSpaceOnUse" x1="98.5142" y1="42.8093" x2="126.9879" y2="75.1419">
				<stop  offset="0" style="stop-color:#245CA7"/>
				<stop  offset="0.4721" style="stop-color:#2560AA"/>
				<stop  offset="1" style="stop-color:#235FA9"/>
			</linearGradient>
			<path style="fill:url(#SVGID_00000109025561394080667300000009745935175677992105_);" d="M89.7,45.2c0,1.8,1.3,3.3,3.1,3.4
				c8.5,0.7,16.7,4.4,22.7,10.4c6,6,9.7,14.2,10.4,22.7c0.2,1.8,1.7,3.1,3.4,3.1h0c2,0,3.6-1.7,3.4-3.7c-0.7-9.8-4.9-19.5-12.4-27
				c-7.5-7.5-17.2-11.7-27-12.4C91.4,41.6,89.7,43.2,89.7,45.2L89.7,45.2z"/>
		</g>
		<g>
			
				<linearGradient id="SVGID_00000121984250609475088780000015274193117938219166_" gradientUnits="userSpaceOnUse" x1="109.3531" y1="67.8103" x2="111.5018" y2="116.694">
				<stop  offset="0" style="stop-color:#245EA9"/>
				<stop  offset="0.5" style="stop-color:#2764AD"/>
				<stop  offset="1" style="stop-color:#2A6CB3"/>
			</linearGradient>
			<path style="fill:url(#SVGID_00000121984250609475088780000015274193117938219166_);" d="M103.8,64.7c-1.3,1.3-1.4,3.3-0.2,4.6
				c5.5,6.5,8.7,14.9,8.7,23.4c0,8.5-3.2,16.9-8.7,23.4c-1.1,1.4-1.1,3.4,0.2,4.6h0c1.4,1.4,3.7,1.3,5-0.2
				c6.4-7.5,10.3-17.2,10.3-27.8c0-10.6-3.9-20.4-10.3-27.8C107.5,63.3,105.2,63.2,103.8,64.7L103.8,64.7z"/>
		</g>
		<g>
			
				<linearGradient id="SVGID_00000170269420685437753830000014599127554830998956_" gradientUnits="userSpaceOnUse" x1="108.7248" y1="92.8843" x2="65.213" y2="131.0244">
				<stop  offset="0" style="stop-color:#2663AC"/>
				<stop  offset="0.5" style="stop-color:#2C6AB1"/>
				<stop  offset="0.7137" style="stop-color:#2C6AB1"/>
				<stop  offset="1" style="stop-color:#2452A0"/>
			</linearGradient>
			<path style="fill:url(#SVGID_00000170269420685437753830000014599127554830998956_);" d="M100,89.6c-1.8,0-3.3,1.3-3.4,3.1
				c-0.7,8.5-4.4,16.7-10.4,22.7c-6,6-14.2,9.7-22.7,10.4c-1.8,0.2-3.1,1.7-3.1,3.4v0c0,2,1.7,3.6,3.7,3.4c9.8-0.7,19.5-4.9,27-12.4
				c7.5-7.5,11.7-17.2,12.4-27C103.6,91.3,102,89.6,100,89.6L100,89.6z"/>
		</g>
		<g>
			<g>
				
					<linearGradient id="SVGID_00000111876036531995747500000005804956932838446752_" gradientUnits="userSpaceOnUse" x1="23.5833" y1="110.2159" x2="81.6575" y2="110.2159">
					<stop  offset="0" style="stop-color:#1F4696"/>
					<stop  offset="0.3994" style="stop-color:#224D9B"/>
					<stop  offset="0.6676" style="stop-color:#2B61AB"/>
					<stop  offset="1" style="stop-color:#2C68B0"/>
				</linearGradient>
				<path style="fill:url(#SVGID_00000111876036531995747500000005804956932838446752_);" d="M80.6,103c-1.3-1.3-3.3-1.4-4.6-0.2
					c-6.5,5.5-14.9,8.7-23.4,8.7c-8.5,0-16.9-3.2-23.4-8.7c-1.4-1.1-3.4-1.1-4.6,0.2l0,0c-1.4,1.4-1.3,3.7,0.2,5
					c7.5,6.4,17.2,10.3,27.8,10.3c10.6,0,20.4-3.9,27.8-10.3C82,106.8,82.1,104.5,80.6,103L80.6,103z"/>
			</g>
		</g>
		<g>
			
				<linearGradient id="SVGID_00000070817937857970942590000006382993857666086027_" gradientUnits="userSpaceOnUse" x1="13.372" y1="65.5923" x2="52.0493" y2="104.0009">
				<stop  offset="0" style="stop-color:#214A99"/>
				<stop  offset="0.3994" style="stop-color:#204999"/>
				<stop  offset="0.7235" style="stop-color:#214B9A"/>
				<stop  offset="1" style="stop-color:#265BA6"/>
			</linearGradient>
			<path style="fill:url(#SVGID_00000070817937857970942590000006382993857666086027_);" d="M57.5,99.4c0-1.8-1.3-3.3-3.1-3.4
				c-8.5-0.7-16.7-4.4-22.7-10.4c-6-6-9.7-14.2-10.4-22.7c-0.2-1.8-1.7-3.1-3.4-3.1h0c-2,0-3.6,1.7-3.4,3.7
				c0.7,9.8,4.9,19.5,12.4,27c7.5,7.5,17.2,11.7,27,12.4C55.8,103,57.5,101.5,57.5,99.4L57.5,99.4z"/>
		</g>
		<g>
			
				<linearGradient id="SVGID_00000178910179846255458690000012808728440645927053_" gradientUnits="userSpaceOnUse" x1="67.0774" y1="75.2232" x2="82.585" y2="65.5749">
				<stop  offset="0" style="stop-color:#295FA9"/>
				<stop  offset="1" style="stop-color:#275DA7"/>
			</linearGradient>
			<path style="fill-rule:evenodd;clip-rule:evenodd;fill:url(#SVGID_00000178910179846255458690000012808728440645927053_);" d="
				M83.3,67c0.1,6.5-3.9,12.1-9.7,14.3c-5.7-2.2-9.8-7.8-9.7-14.3c0,0,0,0,0,0c2.6-2.2,6-3.5,9.7-3.5C77.3,63.4,80.7,64.8,83.3,67
				C83.3,67,83.3,67,83.3,67z"/>
		</g>
	</g>
</g>
</svg>
