<svg width="32" height="32" viewBox="0 0 32 32" fill="none" xmlns="http://www.w3.org/2000/svg">
<g clip-path="url(#clip0_13447_130580)">
<path d="M3 12.4C3 10.1598 3 9.03969 3.43597 8.18404C3.81947 7.43139 4.43139 6.81947 5.18404 6.43597C6.03969 6 7.15979 6 9.4 6H22.6C24.8402 6 25.9603 6 26.816 6.43597C27.5686 6.81947 28.1805 7.43139 28.564 8.18404C29 9.03969 29 10.1598 29 12.4V19.6C29 21.8402 29 22.9603 28.564 23.816C28.1805 24.5686 27.5686 25.1805 26.816 25.564C25.9603 26 24.8402 26 22.6 26H9.4C7.15979 26 6.03969 26 5.18404 25.564C4.43139 25.1805 3.81947 24.5686 3.43597 23.816C3 22.9603 3 21.8402 3 19.6V12.4Z" fill="white"/>
<path d="M3 6H33V7.53666H3V6ZM3 9.07395H33V10.6112H3V9.07333V9.07395ZM3 12.1479H33V13.6846H3V12.1479ZM3 15.2219H33V16.7579H3V15.2225V15.2219ZM3 18.2952H33V19.8319H3V18.2952ZM3 21.3685H33V22.9058H3V21.3691V21.3685ZM3 24.4425H33V25.9798H3V24.4425Z" fill="#CC0000"/>
<path d="M3 7.53662H33V9.07391H3V7.53662ZM3 10.6112H33V12.1479H3V10.6112ZM3 13.6845H33V15.2218H3V13.6833V13.6845ZM3 16.7585H33V18.2958H3V16.7585ZM3 19.8324H33V21.3691H3V19.8324ZM3 22.9064H33V24.4437H3V22.9058V22.9064Z" fill="white"/>
<path d="M3 6H14.8879V16.6365H3" fill="#192F5D"/>
<path d="M4.07646 6.62573L4.18283 7.03555H4.52695L4.24853 7.28895L4.35489 7.69877L4.07646 7.44537L3.79804 7.69877L3.9044 7.28895L3.62598 7.03555H3.9701L4.07646 6.62573ZM6.02357 6.62573L6.12994 7.03555H6.47406L6.19564 7.28895L6.302 7.69877L6.02357 7.44537L5.74515 7.69877L5.85151 7.28895L5.57309 7.03555H5.91721L6.02357 6.62573ZM7.97068 6.62573L8.07705 7.03555H8.42117L8.14274 7.28895L8.24911 7.69877L7.97006 7.44537L7.69163 7.69877L7.798 7.28895L7.51894 7.03555H7.86307L7.97068 6.62573ZM9.91779 6.62573L10.0242 7.03555H10.3683L10.0899 7.28895L10.1962 7.69877L9.91842 7.44537L9.63999 7.69877L9.74636 7.28895L9.46856 7.03555H9.81268L9.91904 6.62573H9.91779ZM11.8649 6.62573L11.9713 7.03555H12.3154L12.037 7.28895L12.1433 7.69877L11.8649 7.44537L11.5865 7.69877L11.6928 7.28895L11.4144 7.03555H11.7585L11.8649 6.62573ZM13.812 6.62573L13.9184 7.03555H14.2625L13.9841 7.28895L14.0904 7.69877L13.812 7.44537L13.5336 7.69877L13.6399 7.28895L13.3621 7.03555H13.7063L13.812 6.62573ZM5.05002 7.66248L5.15638 8.0723H5.50051L5.22208 8.3257L5.32845 8.73552L5.05064 8.48212L4.77222 8.73552L4.87858 8.3257L4.60078 8.0723H4.94491L5.05127 7.66248H5.05002ZM6.99713 7.66248L7.10349 8.0723H7.44762L7.16919 8.3257L7.27556 8.73552L6.99713 8.48212L6.7187 8.73552L6.82507 8.3257L6.54664 8.0723H6.89076L6.99713 7.66248ZM8.94424 7.66248L9.0506 8.0723H9.39473L9.1163 8.3257L9.22266 8.73552L8.94424 8.48212L8.66581 8.73552L8.77218 8.3257L8.49375 8.0723H8.83787L8.94424 7.66248ZM10.8913 7.66248L10.9977 8.0723H11.3418L11.0634 8.3257L11.1698 8.73552L10.8913 8.48212L10.6129 8.73552L10.7193 8.3257L10.4409 8.0723H10.785L10.8913 7.66248ZM12.8385 7.66248L12.9448 8.0723H13.2889L13.0111 8.3257L13.1175 8.73552L12.8385 8.48212L12.56 8.73552L12.6664 8.3257L12.3873 8.0723H12.7315L12.8378 7.66248H12.8385ZM4.07646 8.69923L4.18283 9.10905H4.52695L4.24853 9.36182L4.35489 9.77164L4.07646 9.51762L3.79804 9.77101L3.9044 9.36057L3.62598 9.10967H3.9701L4.07646 8.69923ZM6.02357 8.69923L6.12994 9.10905H6.47406L6.19564 9.36182L6.302 9.77164L6.02357 9.51762L5.74515 9.77101L5.85151 9.36057L5.57309 9.10717H5.91721L6.02357 8.69673V8.69923ZM7.97068 8.69923L8.07705 9.10905H8.42117L8.14274 9.36182L8.24911 9.77164L7.97006 9.51762L7.69163 9.77101L7.798 9.36057L7.51894 9.10717H7.86307L7.96943 8.69673L7.97068 8.69923ZM9.91779 8.69923L10.0242 9.10905H10.3683L10.0899 9.36182L10.1962 9.77164L9.91842 9.51762L9.63999 9.77101L9.74636 9.36057L9.46856 9.10717H9.81268L9.91904 8.69673L9.91779 8.69923ZM11.8649 8.69923L11.9713 9.10905H12.3154L12.037 9.36182L12.1433 9.77164L11.8649 9.51762L11.5865 9.77101L11.6928 9.36057L11.4144 9.10717H11.7585L11.8649 8.69673V8.69923ZM13.812 8.69923L13.9184 9.10905H14.2625L13.9841 9.36182L14.0904 9.77164L13.812 9.51762L13.5336 9.77101L13.6399 9.36057L13.3621 9.10717H13.7063L13.8126 8.69673L13.812 8.69923ZM5.05002 9.73535L5.15638 10.1458H5.50051L5.22208 10.3992L5.32845 10.8096L5.05064 10.5562L4.77222 10.8103L4.87733 10.3986L4.59953 10.1458H4.94365L5.05002 9.73598V9.73535ZM6.99713 9.73535L7.10349 10.1458H7.44762L7.16919 10.3992L7.27556 10.8096L6.99713 10.5562L6.7187 10.8103L6.82507 10.4004L6.54664 10.1477H6.89076L6.99713 9.73785V9.73535ZM8.94424 9.73535L9.0506 10.1458H9.39473L9.1163 10.3992L9.22266 10.8096L8.94424 10.555L8.66581 10.809L8.77218 10.3992L8.49375 10.1464H8.83787L8.94424 9.7366V9.73535ZM10.8913 9.73535L10.9977 10.1458H11.3418L11.0634 10.3992L11.1698 10.8096L10.8913 10.5562L10.6129 10.8103L10.7193 10.4004L10.4409 10.1477H10.785L10.8913 9.73785V9.73535ZM12.8385 9.73535L12.9448 10.1458H13.2889L13.0111 10.3986L13.1175 10.809L12.8385 10.5556L12.56 10.8096L12.6664 10.3998L12.3873 10.147H12.7315L12.8378 9.73723L12.8385 9.73535ZM4.07646 10.774L4.18283 11.1838H4.52695L4.24853 11.4372L4.35489 11.847L4.07646 11.5936L3.79804 11.847L3.9044 11.4372L3.62598 11.1825H3.9701L4.07646 10.7727V10.774ZM6.02357 10.774L6.12994 11.1838H6.47406L6.19564 11.4372L6.302 11.847L6.02357 11.5936L5.74515 11.847L5.85151 11.4372L5.57309 11.1838H5.91721L6.02357 10.774ZM7.97068 10.774L8.07705 11.1838H8.42117L8.14274 11.4372L8.24911 11.847L7.97006 11.5936L7.69163 11.847L7.798 11.4372L7.51894 11.1838H7.86307L7.96943 10.774H7.97068ZM9.91779 10.774L10.0242 11.1838H10.3683L10.0899 11.4372L10.1962 11.847L9.91842 11.5936L9.63999 11.847L9.74636 11.4372L9.46856 11.1838H9.81268L9.91904 10.774H9.91779ZM11.8649 10.774L11.9713 11.1838H12.3154L12.037 11.4372L12.1433 11.847L11.8649 11.5936L11.5865 11.847L11.6928 11.4372L11.4144 11.1838H11.7585L11.8649 10.774ZM13.812 10.774L13.9184 11.1838H14.2625L13.9841 11.4372L14.0904 11.847L13.812 11.5936L13.5336 11.847L13.6399 11.4372L13.3621 11.1838H13.7063L13.8126 10.774H13.812ZM5.05002 11.8095L5.15638 12.2193H5.50051L5.22208 12.4727L5.32845 12.8825L5.05064 12.6291L4.77097 12.8825L4.87733 12.4727L4.59953 12.2193H4.94365L5.05002 11.8095ZM6.99713 11.8095L7.10349 12.2193H7.44762L7.16919 12.4727L7.27556 12.8825L6.99713 12.6291L6.7187 12.8825L6.82507 12.4727L6.54664 12.2193H6.89076L6.99713 11.8095ZM8.94424 11.8095L9.0506 12.2193H9.39473L9.1163 12.4727L9.22266 12.8825L8.94424 12.6291L8.66581 12.8825L8.77218 12.4727L8.49375 12.2193H8.83787L8.94424 11.8095ZM10.8913 11.8095L10.9977 12.2193H11.3418L11.0634 12.4727L11.1698 12.8825L10.8913 12.6291L10.6129 12.8825L10.7193 12.4727L10.4409 12.2193H10.785L10.8913 11.8095ZM12.8385 11.8095L12.9448 12.2193H13.2889L13.0105 12.4727L13.1169 12.8825L12.8378 12.6291L12.5594 12.8825L12.6658 12.4727L12.3867 12.2193H12.7308L12.8372 11.8095H12.8385ZM4.07646 12.8825L4.18283 13.2473H4.52695L4.24853 13.4725L4.35489 13.8373L4.07646 13.6121L3.79804 13.8373L3.9044 13.4725L3.62598 13.2473H3.9701L4.07646 12.8825ZM6.02357 12.8825L6.12994 13.2473H6.47406L6.19564 13.4725L6.302 13.8373L6.02357 13.6121L5.74515 13.8373L5.85151 13.4725L5.57309 13.2473H5.91721L6.02357 12.8825ZM7.97068 12.8825L8.07705 13.2473H8.42117L8.14274 13.4725L8.24911 13.8373L7.97006 13.6121L7.69163 13.8373L7.798 13.4725L7.51894 13.2473H7.86307L7.96943 12.8825H7.97068ZM9.91779 12.8825L10.0242 13.2473H10.3683L10.0899 13.4725L10.1962 13.8373L9.91842 13.6121L9.63999 13.8373L9.74636 13.4725L9.46856 13.2473H9.81268L9.91904 12.8825H9.91779ZM11.8649 12.8825L11.9713 13.2473H12.3154L12.037 13.4725L12.1433 13.8373L11.8649 13.6121L11.5865 13.8373L11.6928 13.4725L11.4144 13.2473H11.7585L11.8649 12.8825ZM13.812 12.8825L13.9184 13.2473H14.2625L13.9841 13.4725L14.0904 13.8373L13.812 13.6121L13.5336 13.8373L13.6399 13.4725L13.3621 13.2473H13.7063L13.8126 12.8825H13.812ZM5.05002 13.8048L5.15638 14.1695H5.50051L5.22208 14.3948L5.32845 14.7595L5.05064 14.5343L4.77222 14.7595L4.87858 14.3948L4.60078 14.1695H4.94491L5.05127 13.8048H5.05002ZM6.99713 13.8048L7.10349 14.1695H7.44762L7.16919 14.3948L7.27556 14.7595L6.99713 14.5343L6.7187 14.7595L6.82507 14.3948L6.54664 14.1695H6.89076L6.99713 13.8048ZM8.94424 13.8048L9.0506 14.1695H9.39473L9.1163 14.3948L9.22266 14.7595L8.94424 14.5343L8.66581 14.7595L8.77218 14.3948L8.49375 14.1695H8.83787L8.94424 13.8048ZM10.8913 13.8048L10.9977 14.1695H11.3418L11.0634 14.3948L11.1698 14.7595L10.8913 14.5343L10.6129 14.7595L10.7193 14.3948L10.4409 14.1695H10.785L10.8913 13.8048ZM12.8385 13.8048L12.9448 14.1695H13.2889L13.0105 14.3948L13.1169 14.7595L12.8378 14.5343L12.5594 14.7595L12.6658 14.3948L12.3867 14.1695H12.7308L12.8372 13.8048H12.8385ZM4.07646 14.7595L4.18283 15.2376H4.52695L4.24853 15.5329L4.35489 16.0109L4.07646 15.7156L3.79804 16.0109L3.9044 15.5329L3.62598 15.2376H3.9701L4.07646 14.7595ZM6.02357 14.7595L6.12994 15.2376H6.47406L6.19564 15.5329L6.302 16.0109L6.02357 15.7156L5.74515 16.0109L5.85151 15.5329L5.57309 15.2376H5.91721L6.02357 14.7595ZM7.97068 14.7595L8.07705 15.2376H8.42117L8.14274 15.5329L8.24911 16.0109L7.97006 15.7156L7.69288 16.0109L7.79925 15.5329L7.5202 15.2376H7.86432L7.97068 14.7595ZM9.91779 14.7595L10.0242 15.2376H10.3683L10.0899 15.5329L10.1962 16.0109L9.91842 15.7156L9.63999 16.0109L9.74636 15.5329L9.46856 15.2376H9.81268L9.91904 14.7595H9.91779ZM11.8649 14.7595L11.9713 15.2376H12.3154L12.037 15.5329L12.1433 16.0109L11.8649 15.7156L11.5865 16.0109L11.6928 15.5329L11.4144 15.2376H11.7585L11.8649 14.7595ZM13.812 14.7595L13.9184 15.2376H14.2625L13.9841 15.5329L14.0904 16.0109L13.812 15.7156L13.5336 16.0109L13.6399 15.5329L13.3621 15.2376H13.7063L13.8126 14.7595H13.812Z" fill="white"/>
</g>
<path d="M3.25 12.4C3.25 11.2758 3.25019 10.4476 3.30367 9.79317C3.3569 9.14162 3.46169 8.68424 3.65873 8.29754C4.01825 7.59193 4.59193 7.01825 5.29754 6.65873C5.68424 6.46169 6.14162 6.3569 6.79317 6.30367C7.44763 6.25019 8.27577 6.25 9.4 6.25H22.6C23.7242 6.25 24.5524 6.25019 25.2068 6.30367C25.8584 6.3569 26.3158 6.46169 26.7025 6.65873C27.4081 7.01825 27.9817 7.59193 28.3413 8.29754C28.5383 8.68424 28.6431 9.14162 28.6963 9.79317C28.7498 10.4476 28.75 11.2758 28.75 12.4V19.6C28.75 20.7242 28.7498 21.5524 28.6963 22.2068C28.6431 22.8584 28.5383 23.3158 28.3413 23.7025C27.9817 24.4081 27.4081 24.9817 26.7025 25.3413C26.3158 25.5383 25.8584 25.6431 25.2068 25.6963C24.5524 25.7498 23.7242 25.75 22.6 25.75H9.4C8.27577 25.75 7.44763 25.7498 6.79317 25.6963C6.14162 25.6431 5.68424 25.5383 5.29754 25.3413C4.59193 24.9817 4.01825 24.4081 3.65873 23.7025C3.46169 23.3158 3.3569 22.8584 3.30367 22.2068C3.25019 21.5524 3.25 20.7242 3.25 19.6V12.4Z"/>
<defs>
<clipPath id="clip0_13447_130580">
<path d="M3 12.4C3 10.1598 3 9.03969 3.43597 8.18404C3.81947 7.43139 4.43139 6.81947 5.18404 6.43597C6.03969 6 7.15979 6 9.4 6H22.6C24.8402 6 25.9603 6 26.816 6.43597C27.5686 6.81947 28.1805 7.43139 28.564 8.18404C29 9.03969 29 10.1598 29 12.4V19.6C29 21.8402 29 22.9603 28.564 23.816C28.1805 24.5686 27.5686 25.1805 26.816 25.564C25.9603 26 24.8402 26 22.6 26H9.4C7.15979 26 6.03969 26 5.18404 25.564C4.43139 25.1805 3.81947 24.5686 3.43597 23.816C3 22.9603 3 21.8402 3 19.6V12.4Z" fill="white"/>
</clipPath>
</defs>
</svg>
